<svg xmlns="http://www.w3.org/2000/svg" style="display: none;">
	<symbol id="icon-add" height="24" viewBox="0 0 24 24" width="24" xmlns="http://www.w3.org/2000/svg">
		<path d="M19 13h-6v6h-2v-6H5v-2h6V5h2v6h6v2z"/>
		<path d="M0 0h24v24H0z" fill="none"/>
		</symbol>

	<symbol id="icon-add-outline" height="24" viewBox="0 0 24 24" width="24" xmlns="http://www.w3.org/2000/svg">
	    <path d="M0 0h24v24H0z" fill="none"/>
	    <path d="M13 7h-2v4H7v2h4v4h2v-4h4v-2h-4V7zm-1-5C6.48 2 2 6.48 2 12s4.48 10 10 10 10-4.48 10-10S17.52 2 12 2zm0 18c-4.41 0-8-3.59-8-8s3.59-8 8-8 8 3.59 8 8-3.59 8-8 8z"/>
	</symbol>

	<symbol id="icon-add-cart" height="24" viewBox="0 0 24 24" width="24" xmlns="http://www.w3.org/2000/svg">
	    <path d="M0 0h24v24H0zm18.31 6l-2.76 5z" fill="none"/>
	    <path d="M11 9h2V6h3V4h-3V1h-2v3H8v2h3v3zm-4 9c-1.1 0-1.99.9-1.99 2S5.9 22 7 22s2-.9 2-2-.9-2-2-2zm10 0c-1.1 0-1.99.9-1.99 2s.89 2 1.99 2 2-.9 2-2-.9-2-2-2zm-9.83-3.25l.03-.12.9-1.63h7.45c.75 0 1.41-.41 1.75-1.03l3.86-7.01L19.42 4h-.01l-1.1 2-2.76 5H8.53l-.13-.27L6.16 6l-.95-2-.94-2H1v2h2l3.6 7.59-1.35 2.45c-.16.28-.25.61-.25.96 0 1.1.9 2 2 2h12v-2H7.42c-.13 0-.25-.11-.25-.25z"/>
	</symbol>

	<symbol id="icon-close" height="24" viewBox="0 0 24 24" width="24" xmlns="http://www.w3.org/2000/svg">
	    <path d="M19 6.41L17.59 5 12 10.59 6.41 5 5 6.41 10.59 12 5 17.59 6.41 19 12 13.41 17.59 19 19 17.59 13.41 12z"/>
	    <path d="M0 0h24v24H0z" fill="none"/>
	</symbol>

	<symbol id="icon-close-outline" height="24" viewBox="0 0 24 24" width="24" xmlns="http://www.w3.org/2000/svg">
	    <path d="M0 0h24v24H0z" fill="none"/>
	    <path d="M14.59 8L12 10.59 9.41 8 8 9.41 10.59 12 8 14.59 9.41 16 12 13.41 14.59 16 16 14.59 13.41 12 16 9.41 14.59 8zM12 2C6.47 2 2 6.47 2 12s4.47 10 10 10 10-4.47 10-10S17.53 2 12 2zm0 18c-4.41 0-8-3.59-8-8s3.59-8 8-8 8 3.59 8 8-3.59 8-8 8z"/>
	</symbol>

	<symbol id="icon-delete" height="24" viewBox="0 0 24 24" width="24" xmlns="http://www.w3.org/2000/svg">
	    <path d="M6 19c0 1.1.9 2 2 2h8c1.1 0 2-.9 2-2V7H6v12zM19 4h-3.5l-1-1h-5l-1 1H5v2h14V4z"/>
	    <path d="M0 0h24v24H0z" fill="none"/>
	</symbol>

	<symbol id="icon-done" height="24" viewBox="0 0 24 24" width="24" xmlns="http://www.w3.org/2000/svg">
	    <path d="M0 0h24v24H0z" fill="none"/>
	    <path d="M9 16.2L4.8 12l-1.4 1.4L9 19 21 7l-1.4-1.4L9 16.2z"/>
	</symbol>

	<symbol id="icon-down" height="24" viewBox="0 0 24 24" width="24" xmlns="http://www.w3.org/2000/svg">
	    <path d="M7.41 7.84L12 12.42l4.59-4.58L18 9.25l-6 6-6-6z"/>
	    <path d="M0-.75h24v24H0z" fill="none"/>
	</symbol>

	<symbol id="icon-up" height="24" viewBox="0 0 24 24" width="24" xmlns="http://www.w3.org/2000/svg">
	    <path d="M7.41 15.41L12 10.83l4.59 4.58L18 14l-6-6-6 6z"/>
	    <path d="M0 0h24v24H0z" fill="none"/>
	</symbol>
		
	<symbol id="icon-link" height="24" viewBox="0 0 24 24" width="24" xmlns="http://www.w3.org/2000/svg">
	    <path d="M0 0h24v24H0z" fill="none"/>
	    <path d="M3.9 12c0-1.71 1.39-3.1 3.1-3.1h4V7H7c-2.76 0-5 2.24-5 5s2.24 5 5 5h4v-1.9H7c-1.71 0-3.1-1.39-3.1-3.1zM8 13h8v-2H8v2zm9-6h-4v1.9h4c1.71 0 3.1 1.39 3.1 3.1s-1.39 3.1-3.1 3.1h-4V17h4c2.76 0 5-2.24 5-5s-2.24-5-5-5z"/>
	</symbol>

	<symbol id="icon-remove" height="24" viewBox="0 0 24 24" width="24" xmlns="http://www.w3.org/2000/svg">
	    <path d="M19 13H5v-2h14v2z"/>
	    <path d="M0 0h24v24H0z" fill="none"/>
	</symbol>

	<symbol id="icon-remove-outline" height="24" viewBox="0 0 24 24" width="24" xmlns="http://www.w3.org/2000/svg">
	    <path d="M0 0h24v24H0z" fill="none"/>
	    <path d="M7 11v2h10v-2H7zm5-9C6.48 2 2 6.48 2 12s4.48 10 10 10 10-4.48 10-10S17.52 2 12 2zm0 18c-4.41 0-8-3.59-8-8s3.59-8 8-8 8 3.59 8 8-3.59 8-8 8z"/>
	</symbol>
</svg>