<?xml version="1.0" encoding="UTF-8"?>
<svg width="52px" height="54px" viewBox="0 0 52 54" version="1.1" xmlns="http://www.w3.org/2000/svg" xmlns:xlink="http://www.w3.org/1999/xlink">
    <!-- Generator: Sketch 41.1 (35376) - http://www.bohemiancoding.com/sketch -->
    <title>Page 1</title>
    <desc>Created with Sketch.</desc>
    <defs>
        <polygon id="path-1" points="25.977483 53.9521994 51.9549497 53.9521994 51.9549497 0 25.977483 0 1.63522018e-05 0 1.63522018e-05 53.9521994"></polygon>
    </defs>
    <g id="Page-1" stroke="none" stroke-width="1" fill="none" fill-rule="evenodd">
        <g id="ANA-Homepage" transform="translate(-81.000000, -53.000000)">
            <g id="Page-1" transform="translate(81.000000, 53.000000)">
                <mask id="mask-2" fill="white">
                    <use xlink:href="#path-1"></use>
                </mask>
                <g id="Clip-2"></g>
                <path d="M36.7578025,43.3886737 C34.7023308,42.7959789 32.738922,41.9593051 30.9190038,40.9000242 L30.6665258,40.7530332 L23.8480667,44.8920272 C20.5723937,42.9279607 17.6683245,40.1825257 15.2130415,36.7279124 C13.1704881,33.854003 11.4277522,30.4792477 10.0332365,26.6974532 C7.67189686,20.2933958 7.05206667,14.7143474 6.9620478,13.7904743 L26.7401987,1.69569789 C26.9923497,3.77274018 27.891966,9.69822054 30.5019409,16.0336767 C32.4035384,20.6494532 34.8282428,24.5831329 37.7087648,27.7254924 C41.0662805,31.3881934 45.0520478,33.9775831 49.5690981,35.4336254 L36.7578025,43.3886737 Z M50.881444,34.8057734 C46.1147774,33.4769003 41.9296767,30.8760906 38.4425698,27.0756979 C35.6406201,24.022006 33.2774818,20.1899637 31.4191358,15.6859396 C28.2423119,7.98596375 27.6390792,0.905438066 27.633356,0.834716012 L27.5685195,0.0403776435 L21.7487711,3.59907553 L21.7489346,0 L0.0152238994,13.2907704 L1.63522018e-05,53.9521994 L18.9181233,42.4230363 C20.3826264,43.7609637 21.9472868,44.9180483 23.603356,45.8852356 L23.8560792,46.0328792 L30.6786264,41.8915196 C32.560356,42.958713 34.584595,43.7986495 36.700161,44.3899577 L36.9082428,44.4481178 L51.954966,35.1050574 L50.881444,34.8057734 Z" id="Fill-1" fill="#1B52DD" mask="url(#mask-2)"></path>
            </g>
        </g>
    </g>
</svg>