<?xml version="1.0" encoding="UTF-8" standalone="no"?>
<svg width="475px" height="511px" viewBox="0 0 475 511" version="1.1" xmlns="http://www.w3.org/2000/svg" xmlns:xlink="http://www.w3.org/1999/xlink">
    <!-- Generator: Sketch 3.8.3 (29802) - http://www.bohemiancoding.com/sketch -->
    <title>Page 1</title>
    <desc>Created with Sketch.</desc>
    <defs></defs>
    <g id="Page-1" stroke="none" stroke-width="1" fill="none" fill-rule="evenodd">
        <g transform="translate(12.000000, 12.000000)" stroke="#C1272D" stroke-width="24">
            <path d="M215.6816,452.0997 C195.1676,486.1677 150.9246,497.1547 116.8586,476.6427 C82.7926,456.1297 71.8056,411.8877 92.3186,377.8207" id="Stroke-1"></path>
            <path d="M152.0927,32.3575 C122.6137,19.4865 65.1157,55.4865 49.8657,100.2115" id="Stroke-3" stroke-linecap="round" stroke-linejoin="round"></path>
            <path d="M225.2197,39.9688 C222.3327,9.5368 183.1607,-6.2712 155.1587,2.3298 C140.2797,6.9008 127.8437,17.9978 121.5767,32.2408 C60.1157,55.4868 36.1187,109.4868 41.7537,163.1038 C42.9097,174.1038 43.4217,178.6508 35.0377,186.3378 C29.1607,191.7248 23.8797,197.7618 19.3237,204.3028 C10.0307,217.6428 3.8247,233.0528 1.3077,249.1148 C-1.4143,266.4908 0.1317,284.4988 5.8587,301.1338 C8.6777,309.3228 12.4927,317.1638 17.1887,324.4408 C23.7097,334.5468 35.1107,339.5208 30.0337,350.7178 C17.6617,378.0028 30.6877,411.0718 58.2227,422.7178 C64.8587,425.5248 72.0367,426.9608 79.2417,426.9608 C84.9117,426.9608 84.2547,435.9648 86.1667,440.7308 C92.3147,456.0558 103.7937,469.0108 118.2397,476.9998 C161.8677,501.1318 224.6317,478.9168 224.6197,418.4888 L225.2197,39.9688 L225.2197,39.9688 Z" id="Stroke-5" stroke-linecap="round" stroke-linejoin="round"></path>
            <path d="M82.6757,348.3565 C79.5797,367.9985 92.9927,386.4275 112.6327,389.5225" id="Stroke-7" stroke-linecap="round" stroke-linejoin="round"></path>
            <path d="M84.4726,126.3829 C71.7206,147.9689 78.8816,175.8049 100.4666,188.5559" id="Stroke-9" stroke-linecap="round" stroke-linejoin="round"></path>
            <path d="M64.1298,252.5802 C91.1738,248.3092 123.8738,254.0782 146.6198,304.5822 C168.2908,352.6982 188.8978,340.2862 188.8978,340.2862" id="Stroke-11" stroke-linecap="round" stroke-linejoin="round"></path>
            <path d="M51.3593,356.9366 C20.5403,337.9166 0.0003,303.8376 0.0003,264.9596 C-0.0007,217.8476 29.9823,177.2426 72.2373,163.0176" id="Stroke-13" stroke-linecap="round" stroke-linejoin="round"></path>
            <path d="M140.0136,106.6075 C162.5136,106.6075 190.0836,87.1705 190.0836,67.7325" id="Stroke-15" stroke-linecap="round" stroke-linejoin="round"></path>
            <path d="M234.5488,452.0997 C255.0628,486.1677 299.3058,497.1547 333.3718,476.6427 C367.4378,456.1297 378.4248,411.8877 357.9118,377.8207" id="Stroke-17"></path>
            <path d="M298.1377,32.3575 C327.6177,19.4865 385.1157,55.4865 400.3657,100.2115" id="Stroke-19" stroke-linecap="round" stroke-linejoin="round"></path>
            <path d="M225.0107,39.9688 C227.8977,9.5368 267.0697,-6.2712 295.0727,2.3298 C309.9507,6.9008 322.3867,17.9978 328.6537,32.2408 C390.1157,55.4868 414.1117,109.4868 408.4767,163.1038 C407.3207,174.1038 406.8087,178.6508 415.1927,186.3378 C421.0697,191.7248 426.3507,197.7618 430.9067,204.3028 C440.1997,217.6428 446.4057,233.0528 448.9227,249.1148 C451.6447,266.4908 450.0987,284.4988 444.3717,301.1338 C441.5527,309.3228 437.7377,317.1638 433.0417,324.4408 C426.5207,334.5468 415.1197,339.5208 420.1977,350.7178 C432.5687,378.0028 419.5427,411.0718 392.0077,422.7178 C385.3717,425.5248 378.1937,426.9608 370.9897,426.9608 C365.3187,426.9608 365.9757,435.9648 364.0637,440.7308 C357.9157,456.0558 346.4367,469.0108 331.9917,476.9998 C288.3627,501.1318 225.5987,478.9168 225.6107,418.4888 L225.0107,39.9688 L225.0107,39.9688 Z" id="Stroke-21" stroke-linecap="round" stroke-linejoin="round"></path>
            <path d="M367.5547,348.3565 C370.6507,367.9985 357.2377,386.4275 337.5977,389.5225" id="Stroke-23" stroke-linecap="round" stroke-linejoin="round"></path>
            <path d="M365.7578,126.3829 C378.5098,147.9689 371.3488,175.8049 349.7638,188.5559" id="Stroke-25" stroke-linecap="round" stroke-linejoin="round"></path>
            <path d="M385.1006,252.5802 C358.0566,248.3092 325.3566,254.0782 302.6106,304.5822 C280.9396,352.6982 260.3326,340.2862 260.3326,340.2862" id="Stroke-27" stroke-linecap="round" stroke-linejoin="round"></path>
            <path d="M398.8711,356.9366 C429.6901,337.9166 450.2301,303.8376 450.2301,264.9596 C450.2311,217.8476 420.2481,177.2426 377.9931,163.0176" id="Stroke-29" stroke-linecap="round" stroke-linejoin="round"></path>
            <path d="M310.2168,106.6075 C287.7168,106.6075 260.1468,87.1705 260.1468,67.7325" id="Stroke-31" stroke-linecap="round" stroke-linejoin="round"></path>
        </g>
    </g>
</svg>