<?xml version="1.0" encoding="UTF-8" standalone="no"?>
<svg width="512px" height="358px" viewBox="0 0 512 358" version="1.1" xmlns="http://www.w3.org/2000/svg" xmlns:xlink="http://www.w3.org/1999/xlink">
    <!-- Generator: Sketch 3.8.3 (29802) - http://www.bohemiancoding.com/sketch -->
    <title>Page 1</title>
    <desc>Created with Sketch.</desc>
    <defs></defs>
    <g id="Page-1" stroke="none" stroke-width="1" fill="none" fill-rule="evenodd" stroke-linecap="round" stroke-linejoin="round">
        <g transform="translate(12.000000, 12.000000)" stroke="#C1272D" stroke-width="24">
            <path d="M487.9561,168.9175 C487.9561,168.9175 401.7831,292.3275 235.0371,284.8275 C68.2891,277.3275 0.0001,168.9175 0.0001,168.9175 L0.0001,169.1555 C0.0001,169.1555 68.2891,60.7475 235.0371,53.2475 C401.7831,45.7475 487.3051,169.1555 487.3051,169.1555 L487.9561,168.9175 L487.9561,168.9175 Z" id="Stroke-1"></path>
            <path d="M47.3652,121.8873 C55.2002,113.5383 59.4932,103.3273 60.2512,90.9663 C60.6352,84.8373 60.0452,78.3723 58.4232,72.1293 C56.7772,65.8593 54.0192,59.6873 49.8902,54.1173" id="Stroke-3"></path>
            <path d="M113.6113,81.398 C123.9323,75.578 131.4503,66.07 135.5783,54.279 C139.7163,42.751 140.4483,28.958 135.5123,16.019" id="Stroke-5"></path>
            <path d="M190.2471,58.6695 C193.1721,57.9095 195.9501,56.8225 198.5841,55.4465 C201.2331,54.1455 203.7441,52.5955 206.0961,50.7655 C208.4511,48.9645 210.6361,46.8135 212.6781,44.6225 C214.7151,42.4095 216.5791,39.9765 218.2461,37.3605 C224.8811,26.8295 228.5371,13.7495 226.5231,-0.0005" id="Stroke-7"></path>
            <path d="M270.625,53.3199 C276.561,53.1969 282.259,51.5049 287.58,49.1829 C290.246,47.9649 292.832,46.4629 295.315,44.7129 C297.791,42.9939 300.148,41.1379 302.383,38.9939 C306.84,34.7539 310.788,29.5539 313.815,23.8409 C316.836,18.1299 318.966,11.7259 319.691,4.8259" id="Stroke-9"></path>
            <path d="M348.2793,67.9263 C349.7163,68.2713 351.1813,68.4713 352.6183,68.6873 C354.0543,68.9023 355.4983,69.0313 356.9463,69.0793 C358.3953,69.1283 359.8493,69.0973 361.3063,68.9883 C362.0353,68.9343 362.7653,68.8573 363.4933,68.7693 C364.2133,68.7013 364.9333,68.6153 365.6543,68.5093 C368.5373,68.0873 371.4233,67.3693 374.2813,66.3843 C375.7163,65.8783 377.1293,65.3413 378.5173,64.7673 C379.9123,64.1793 381.2953,63.5283 382.6623,62.8133 C388.1263,59.9503 393.3473,56.0813 397.8313,51.4593 C402.3283,46.7983 406.1573,41.2323 408.7683,34.8083" id="Stroke-11"></path>
            <path d="M418.7188,103.355 C429.0038,109.143 441.0468,110.416 453.1678,107.981 C459.2368,106.717 465.2328,104.565 470.9018,101.306 C476.5318,98.082 481.7648,93.83 486.0718,88.388" id="Stroke-13"></path>
            <path d="M361.2998,168.6109 C361.2998,232.9699 309.1258,285.1439 244.7668,285.1439 C180.4068,285.1439 128.2348,232.9699 128.2348,168.6109 C128.2348,104.2519 180.4068,52.0779 244.7668,52.0779 C309.1258,52.0779 361.2998,104.2519 361.2998,168.6109 L361.2998,168.6109 Z" id="Stroke-15"></path>
            <path d="M287.9619,168.6109 C287.9619,192.4659 268.6229,211.8059 244.7669,211.8059 C220.9109,211.8059 201.5709,192.4659 201.5709,168.6109 C201.5709,144.7559 220.9109,125.4159 244.7669,125.4159 C268.6229,125.4159 287.9619,144.7559 287.9619,168.6109 L287.9619,168.6109 Z" id="Stroke-17"></path>
            <path d="M3,235.0611 C5.807,238.1911 24.534,255.9971 32.855,262.0871 C88.773,303.0151 158.506,328.0471 234.515,331.4651 C240.034,331.7141 245.6,333.5231 251.057,333.5231 L251.078,333.5231 C324.263,333.5231 394.24,309.1251 453.446,266.1701 C466.831,256.4591 478.352,245.8991 488,236.8111" id="Stroke-19"></path>
        </g>
    </g>
</svg>