<?xml version="1.0" encoding="UTF-8" standalone="no"?>
<svg width="510px" height="355px" viewBox="0 0 510 355" version="1.1" xmlns="http://www.w3.org/2000/svg" xmlns:xlink="http://www.w3.org/1999/xlink">
    <!-- Generator: Sketch 3.8.3 (29802) - http://www.bohemiancoding.com/sketch -->
    <title>Page 1</title>
    <desc>Created with Sketch.</desc>
    <defs></defs>
    <g id="Page-1" stroke="none" stroke-width="1" fill="none" fill-rule="evenodd" stroke-linecap="round" stroke-linejoin="round">
        <g transform="translate(12.000000, 12.000000)" stroke="#E14B3C" stroke-width="24">
            <path d="M484.9561,168.9175 C484.9561,168.9175 400.2831,292.3275 233.5371,284.8275 C66.7891,277.3275 0.0001,168.9175 0.0001,168.9175 L0.0001,169.1555 C0.0001,169.1555 66.7891,60.7475 233.5371,53.2475 C400.2831,45.7475 485.0551,169.1555 485.0551,169.1555 L484.9561,168.9175 L484.9561,168.9175 Z" id="Stroke-1"></path>
            <path d="M44.3652,121.8873 C52.2002,113.5383 56.4932,103.3273 57.2512,90.9663 C57.6352,84.8373 57.0452,78.3723 55.4232,72.1293 C53.7772,65.8593 51.0192,59.6873 46.8902,54.1173" id="Stroke-3"></path>
            <path d="M110.6113,81.398 C120.9323,75.578 128.4503,66.07 132.5783,54.279 C136.7163,42.751 137.4483,28.958 132.5123,16.019" id="Stroke-5"></path>
            <path d="M187.2471,58.6695 C190.1721,57.9095 192.9501,56.8225 195.5841,55.4465 C198.2331,54.1455 200.7441,52.5955 203.0961,50.7655 C205.4511,48.9645 207.6361,46.8135 209.6781,44.6225 C211.7151,42.4095 213.5791,39.9765 215.2461,37.3605 C221.8811,26.8295 225.5371,13.7495 223.5231,-0.0005" id="Stroke-7"></path>
            <path d="M267.625,53.3199 C273.561,53.1969 279.259,51.5049 284.58,49.1829 C287.246,47.9649 289.832,46.4629 292.315,44.7129 C294.791,42.9939 297.148,41.1379 299.383,38.9939 C303.84,34.7539 307.788,29.5539 310.815,23.8409 C313.836,18.1299 315.966,11.7259 316.691,4.8259" id="Stroke-9"></path>
            <path d="M345.2793,67.9263 C346.7163,68.2713 348.1813,68.4713 349.6183,68.6873 C351.0543,68.9023 352.4983,69.0313 353.9463,69.0793 C355.3953,69.1283 356.8493,69.0973 358.3063,68.9883 C359.0353,68.9343 359.7653,68.8573 360.4933,68.7693 C361.2133,68.7013 361.9333,68.6153 362.6543,68.5093 C365.5373,68.0873 368.4233,67.3693 371.2813,66.3843 C372.7163,65.8783 374.1293,65.3413 375.5173,64.7673 C376.9123,64.1793 378.2953,63.5283 379.6623,62.8133 C385.1263,59.9503 390.3473,56.0813 394.8313,51.4593 C399.3283,46.7983 403.1573,41.2323 405.7683,34.8083" id="Stroke-11"></path>
            <path d="M415.7188,103.355 C426.0038,109.143 438.0468,110.416 450.1678,107.981 C456.2368,106.717 462.2328,104.565 467.9018,101.306 C473.5318,98.082 478.7648,93.83 483.0718,88.388" id="Stroke-13"></path>
            <path d="M358.2998,168.6109 C358.2998,232.9699 306.1258,285.1439 241.7668,285.1439 C177.4068,285.1439 125.2348,232.9699 125.2348,168.6109 C125.2348,104.2519 177.4068,52.0779 241.7668,52.0779 C306.1258,52.0779 358.2998,104.2519 358.2998,168.6109 L358.2998,168.6109 Z" id="Stroke-15"></path>
            <path d="M284.9619,168.6109 C284.9619,192.4659 265.6229,211.8059 241.7669,211.8059 C217.9109,211.8059 198.5709,192.4659 198.5709,168.6109 C198.5709,144.7559 217.9109,125.4159 241.7669,125.4159 C265.6229,125.4159 284.9619,144.7559 284.9619,168.6109 L284.9619,168.6109 Z" id="Stroke-17"></path>
            <path d="M0,235.0611 C2.807,238.1911 21.534,255.9971 29.855,262.0871 C85.773,303.0151 155.506,326.5471 231.515,329.9651 C237.034,330.2141 242.6,330.5231 248.057,330.5231 L248.078,330.5231 C321.263,330.5231 391.24,307.6251 450.446,264.6701 C463.831,254.9591 475.352,245.1491 485,236.0611" id="Stroke-19"></path>
        </g>
    </g>
</svg>