<svg xmlns="http://www.w3.org/2000/svg" style="display: none;">
  
    <symbol id="icon-facebook" viewBox="0 0 512 512">
      <path d="m384 3l0 76-45 0c-17 0-28 3-33 10-6 7-9 17-9 31l0 54 84 0-11 85-73 0 0 216-87 0 0-216-73 0 0-85 73 0 0-62c0-36 10-63 29-83 20-19 47-29 80-29 28 0 49 1 65 3z"/>
    </symbol>
  
    <symbol id="icon-twitter" viewBox="0 0 512 512">
      <path d="m481 117c-13 18-28 34-46 47 0 3 0 7 0 12 0 25-3 50-11 74-7 25-18 49-33 71-14 23-32 43-52 61-21 17-45 31-74 41-29 11-60 16-92 16-52 0-99-14-142-42 7 1 14 2 22 2 43 0 81-14 115-40-20 0-38-6-54-18-16-12-27-27-33-46 7 1 13 2 18 2 8 0 16-1 24-4-21-4-39-15-53-31-14-17-21-37-21-59l0-1c13 7 27 11 42 11-13-8-23-19-30-32-8-14-11-29-11-44 0-17 4-33 12-47 23 28 51 51 84 68 33 17 69 27 107 29-2-8-3-15-3-22 0-25 9-47 27-65 18-18 40-27 66-27 26 0 49 10 67 29 21-4 40-11 59-22-7 22-21 39-41 51 18-2 35-7 53-14z"/>
    </symbol>
  
    <symbol id="icon-instagram" viewBox="0 0 512 512">
      <path d="m426 407l0-185-39 0c4 12 6 25 6 38 0 24-6 46-18 66-13 20-29 36-50 48-21 12-44 18-69 18-37 0-69-13-96-39-27-26-40-57-40-93 0-13 2-26 6-38l-41 0 0 185c0 5 2 10 5 13 4 3 8 5 13 5l305 0c5 0 9-2 13-5 3-3 5-8 5-13z m-81-152c0-23-9-44-26-60-18-17-38-25-63-25-24 0-45 8-62 25-17 16-26 37-26 60 0 24 9 44 26 61 17 16 38 25 62 25 25 0 45-9 63-25 17-17 26-37 26-61z m81-103l0-47c0-5-2-10-6-14-4-4-8-6-14-6l-50 0c-5 0-10 2-14 6-4 4-5 9-5 14l0 47c0 6 1 10 5 14 4 4 9 6 14 6l50 0c6 0 10-2 14-6 4-4 6-8 6-14z m49-59l0 326c0 16-5 29-16 40-11 11-24 16-40 16l-326 0c-16 0-29-5-40-16-11-11-16-24-16-40l0-326c0-16 5-29 16-40 11-11 24-16 40-16l326 0c16 0 29 5 40 16 11 11 16 24 16 40z"/>
    </symbol>
  
    <symbol id="icon-github" viewBox="0 0 512 512">
      <path d="m475 256c0 48-14 91-41 129-28 38-64 65-109 79-5 1-8 1-11-2-2-2-3-5-3-8l0-61c0-18-5-32-15-40 11-1 20-3 29-5 9-3 18-6 27-11 9-6 17-12 23-19 6-8 11-18 15-30 4-13 6-27 6-43 0-23-8-43-23-59 7-18 7-37-2-59-5-1-13 0-23 4-10 3-19 8-26 12l-11 7c-18-5-36-7-55-7-19 0-37 2-55 7-3-2-7-5-12-8-5-3-13-6-24-11-11-4-19-5-24-4-9 22-9 41-2 59-15 16-23 36-23 59 0 16 2 30 6 42 4 13 9 23 15 30 6 8 14 14 23 20 9 5 18 8 27 11 8 2 18 4 29 5-8 7-12 17-14 29-4 2-8 4-13 5-4 1-10 1-16 1-6 0-13-2-19-6-6-4-11-10-16-18-3-6-8-11-14-15-5-4-10-6-14-7l-5-1c-4 0-7 1-9 2-1 1-2 2-1 3 0 1 1 3 2 4 2 1 3 2 4 3l2 2c4 2 8 5 13 11 4 5 7 10 9 14l2 7c3 7 7 13 13 17 6 5 12 8 19 9 7 1 14 2 20 2 6 0 12 0 16-1l6-1c0 7 0 16 1 25 0 10 0 15 0 16 0 3-2 6-4 8-2 3-6 3-11 2-45-14-81-41-109-79-27-38-41-81-41-129 0-40 9-77 29-110 20-34 46-60 80-80 33-20 70-29 110-29 40 0 77 9 110 29 34 20 60 46 80 80 20 33 29 70 29 110z"/>
    </symbol>
  
    <symbol id="icon-pinterest" viewBox="0 0 512 512">
      <path d="m73 171c0-21 4-40 11-59 7-18 17-34 29-47 13-14 27-25 44-35 16-10 34-18 53-23 19-5 38-7 57-7 31 0 59 6 84 19 26 13 47 31 64 55 16 24 24 52 24 82 0 19-2 36-6 54-3 18-9 34-17 51-8 16-17 30-28 42-12 13-25 22-42 30-16 7-34 11-54 11-13 0-26-3-38-9-13-7-22-15-28-26-2 8-4 19-8 33-3 14-5 23-6 27-1 4-3 11-6 20-3 9-6 16-8 20-2 4-5 10-9 18-4 8-8 15-13 22-5 7-11 15-18 25l-4 1-2-2c-3-30-5-48-5-54 0-18 2-37 7-59 4-22 10-49 19-82 8-33 13-53 14-58-6-13-9-29-9-49 0-15 5-30 15-44 10-14 23-21 38-21 11 0 21 4 27 12 6 7 10 17 10 29 0 12-4 31-13 54-8 24-12 42-12 54 0 12 4 22 12 30 9 8 19 12 32 12 10 0 20-3 29-8 9-4 16-11 22-19 6-8 11-17 16-27 5-10 8-21 11-32 3-11 4-21 6-31 1-10 2-20 2-29 0-33-11-58-32-77-21-18-48-27-81-27-38 0-70 12-96 37-25 24-38 56-38 93 0 9 1 17 4 25 2 8 5 14 7 18 3 5 6 9 8 13 2 4 4 7 4 9 0 5-2 12-5 21-3 8-6 13-10 13-1 0-2-1-5-1-10-3-18-8-26-16-8-8-13-17-17-27-5-10-8-21-10-31-2-10-3-21-3-30z"/>
    </symbol>
  
    <symbol id="icon-vimeo" viewBox="0 0 512 512">
      <path d="m488 148c-2 45-33 107-95 186-63 82-117 123-160 123-27 0-50-25-69-75-8-30-21-76-37-138-14-50-29-75-45-75-4 0-16 8-37 22l-22-28c5-4 15-13 31-27 16-15 29-26 37-33 30-27 53-41 69-42 18-2 33 3 44 16 11 12 19 31 23 58 9 55 15 90 19 106 10 48 22 72 34 72 10 0 25-16 44-46 20-31 30-55 31-71 3-26-7-39-31-39-11 0-22 2-34 7 23-75 66-111 131-109 48 1 70 32 67 93z"/>
    </symbol>
  
    <symbol id="icon-right" viewBox="0 0 512 512">
      <path d="m335 274c0 3-1 5-3 7l-133 133c-2 2-5 3-7 3-2 0-5-1-7-3l-14-14c-2-2-3-4-3-7 0-2 1-5 3-6l112-113-112-112c-2-2-3-4-3-7 0-2 1-4 3-6l14-14c2-2 5-3 7-3 2 0 5 1 7 3l133 133c2 2 3 4 3 6z"/>
    </symbol>
  
    <symbol id="icon-down" viewBox="0 0 512 512">
      <path d="m399 210c0 3-1 5-3 7l-133 133c-2 2-5 3-7 3-2 0-5-1-7-3l-133-133c-2-2-3-4-3-7 0-2 1-4 3-6l15-15c1-1 4-2 6-2 3 0 5 1 7 2l112 113 112-113c2-1 4-2 7-2 2 0 5 1 6 2l15 15c2 2 3 4 3 6z"/>
    </symbol>
  
    <symbol id="icon-amazon" viewBox="0 0 512 512">
      <path d="m443 422c3-1 5-2 8-1 2 0 3 2 3 5 0 3-2 6-5 9-2 3-6 8-12 13-6 5-15 12-27 19-13 8-26 15-41 21-14 7-32 12-53 17-22 5-44 7-66 7-23 0-45-3-68-9-23-6-43-13-60-22-17-8-33-18-49-29-16-12-28-22-38-30-9-9-17-18-24-25-1-2-2-4-3-5 0-2 0-3 1-4 0 0 1-1 2-2 1 0 2 0 3 0 1 0 2 0 3 1 37 22 66 38 86 48 74 33 150 42 228 25 37-7 74-20 112-38z m59-33c2 3 3 10 1 20-2 10-4 20-8 29-7 16-15 28-24 35-4 3-6 4-8 3-2-1-2-3 0-7 4-8 8-20 13-35 4-14 5-24 2-28-1-1-3-2-5-3-2-1-4-1-7-2-4 0-6 0-9 0-2-1-6-1-10 0-4 0-7 0-9 0-2 0-5 1-9 1-4 0-6 1-6 1-1 0-3 0-4 0-1 0-2 0-3 0-1 0-2 0-2 1-1 0-2 0-2-1l-3 0-1 0-1 0 0-1c-1-3 3-7 13-11 10-5 20-8 30-9 8-1 19-1 31 0 11 1 19 3 21 7z m-112-127c0 6 1 12 4 19 2 6 5 11 9 16 3 5 7 9 10 13 4 4 7 7 10 9l4 4-65 64c-8-7-15-15-23-22-7-7-13-13-16-17l-6-5c-2-3-4-6-7-10-7 11-17 21-28 29-11 9-23 15-36 19-13 3-27 6-40 6-14 1-27-1-40-6-12-4-23-11-33-19-10-7-18-18-24-32-6-13-9-29-9-46 0-16 3-31 8-44 6-14 12-25 21-34 8-8 18-16 30-23 12-7 24-13 35-17 12-3 24-7 37-9 14-3 25-5 35-6 9-1 18-1 28-2l0-36c0-12-2-21-6-28-6-10-18-15-35-15-1 0-2 0-4 1-2 0-6 1-12 3-6 2-11 5-16 8-5 4-10 10-16 17-6 8-10 17-14 28l-84-8c0-11 3-23 7-34 4-11 10-22 19-32 8-10 19-19 31-27 12-8 26-14 43-19 17-5 35-7 54-7 19 0 37 2 52 7 16 5 28 11 37 18 9 7 17 15 23 23 6 9 11 17 13 25 3 8 4 15 4 21z m-192 6c0 17 6 29 20 38 12 9 26 11 39 7 16-5 27-17 33-36 3-8 4-18 4-28l0-47c-11 1-22 2-32 4-10 2-20 5-30 9-11 5-19 12-25 21-6 9-9 20-9 32z"/>
    </symbol>
  
    <symbol id="icon-recycle" viewBox="0 0 512 512">
      <path d="m239 334l-4 105-1 6-120-8c-7 0-13-3-19-9-6-5-11-12-14-19-2-5-3-10-4-15 0-6 0-12 1-19 2-7 3-12 4-16 1-3 3-9 6-18 3-9 5-14 5-15 15 2 64 5 146 8z m-111-167l52 108-42-26c-12 13-23 27-32 41-9 14-16 26-21 36-4 10-8 19-11 27-3 8-5 14-5 18l-2 6-54-102c-3-5-5-11-5-16 0-6 0-11 2-14l2-5c7-12 18-30 33-54l-40-24z m352 147l-54 103c-2 5-5 10-10 13-5 3-9 5-13 6l-5 1c-13 1-34 3-62 4l2 46-66-104 61-104 2 50c32 3 59 3 80 1 22-2 38-5 49-9z m-224-264c-9 12-34 54-76 125l-91-54-5-3 64-102c4-6 10-10 17-13 8-3 16-3 23-3 5 1 9 2 14 4 5 2 9 4 12 6 3 2 7 5 12 9 5 4 8 8 10 10 3 2 6 6 11 11 4 5 7 9 9 10z m187 88l60 104c4 7 5 14 4 21-1 8-4 15-8 22-2 3-5 7-9 10-4 3-8 6-11 8-4 2-8 4-14 6-6 3-10 4-13 5-4 1-8 2-15 4-7 2-11 3-13 3-7-13-32-55-76-124l89-56z m-41-65l41-23-63 106-120-5 43-25c-6-17-13-33-21-47-8-15-15-27-22-36-6-9-13-16-18-23-6-6-10-10-14-13l-5-4 116 1c6-1 12 0 17 3 5 2 9 5 11 8l3 4c7 12 18 30 32 54z"/>
    </symbol>
  
    <symbol id="icon-youtube" viewBox="0 0 512 512">
      <path d="m314 355l0 61c0 12-4 19-11 19-5 0-9-2-13-6l0-86c4-5 8-7 13-7 7 0 11 7 11 19z m97 1l0 13-26 0 0-13c0-13 4-20 13-20 8 0 13 7 13 20z m-276-63l30 0 0-26-89 0 0 26 30 0 0 163 29 0z m82 163l25 0 0-141-25 0 0 108c-6 8-11 12-16 12-4 0-6-2-6-6-1-1-1-4-1-10l0-104-25 0 0 112c0 9 1 16 2 20 2 7 8 11 17 11 9 0 19-6 29-17z m122-42l0-57c0-13 0-23-2-28-3-11-10-16-20-16-10 0-19 5-27 16l0-62-25 0 0 189 25 0 0-14c9 11 17 16 27 16 10 0 17-5 20-16 2-5 2-14 2-28z m97-3l0-4-26 0c0 10 0 16-1 18-1 6-5 10-11 10-9 0-13-7-13-20l0-25 51 0 0-29c0-15-3-26-8-33-7-10-17-15-30-15-13 0-23 5-31 15-5 7-8 18-8 33l0 49c0 15 3 26 9 33 7 10 17 15 31 15 13 0 24-5 30-15 4-5 6-10 6-16 1-1 1-7 1-16z m-174-261l0-60c0-13-4-20-12-20-8 0-12 7-12 20l0 60c0 13 4 20 12 20 8 0 12-7 12-20z m206 215c0 44-3 77-8 100-2 11-8 20-16 28-9 7-18 12-29 13-35 4-88 6-159 6-71 0-124-2-159-6-11-1-20-6-29-13-8-8-14-17-16-28-5-22-8-55-8-100 0-45 3-78 8-100 2-12 8-21 16-29 9-7 18-12 30-13 35-4 87-6 158-6 71 0 124 2 159 6 11 1 20 6 29 13 8 8 14 17 16 29 5 21 8 54 8 100z m-285-365l29 0-35 114 0 77-28 0 0-77c-3-14-9-34-18-61-7-19-13-37-18-53l30 0 20 75z m105 95l0 50c0 16-2 27-8 34-7 10-17 14-30 14-13 0-23-4-30-14-5-7-8-19-8-34l0-50c0-15 3-26 8-33 7-10 17-15 30-15 13 0 23 5 30 15 6 7 8 18 8 33z m96-46l0 142-26 0 0-15c-10 12-20 17-29 17-9 0-15-3-17-10-2-5-3-12-3-22l0-112 26 0 0 105c0 6 1 9 1 10 0 4 2 6 6 6 5 0 10-4 16-12l0-109z"/>
    </symbol>
  
    <symbol id="icon-up" viewBox="0 0 512 512">
      <path d="m399 338c0 3-1 5-3 7l-15 14c-1 2-4 3-6 3-3 0-5-1-7-3l-112-112-112 112c-2 2-4 3-7 3-2 0-5-1-6-3l-15-14c-2-2-3-4-3-7 0-2 1-4 3-6l133-133c2-2 5-3 7-3 2 0 5 1 7 3l133 133c2 2 3 4 3 6z"/>
    </symbol>
  
    <symbol id="icon-left" viewBox="0 0 512 512">
      <path d="m344 155c0 3-1 5-3 7l-112 112 112 113c2 1 3 4 3 6 0 3-1 5-3 7l-14 14c-2 2-5 3-7 3-2 0-5-1-7-3l-133-133c-2-2-3-4-3-7 0-2 1-4 3-6l133-133c2-2 5-3 7-3 2 0 5 1 7 3l14 14c2 2 3 4 3 6z"/>
    </symbol>
  
    <symbol id="icon-close" viewBox="0 0 512 512">
      <path d="m364 169l-86 87 86 87-21 21-87-86-87 86-21-21 86-87-86-87 21-21 87 86 87-86z m-108 331c135 0 244-109 244-244 0-135-109-244-244-244-135 0-244 109-244 244 0 135 109 244 244 244z m0-23c-122 0-221-99-221-221 0-122 99-221 221-221 122 0 221 99 221 221 0 122-99 221-221 221z"/>
    </symbol>
  
    <symbol id="icon-trash" viewBox="0 0 512 512">
      <path d="m201 210l0 165c0 3-1 5-2 6-2 2-4 3-7 3l-18 0c-3 0-5-1-7-3-2-1-2-3-2-6l0-165c0-2 0-5 2-6 2-2 4-3 7-3l18 0c3 0 5 1 7 3 1 1 2 4 2 6z m73 0l0 165c0 3-1 5-2 6-2 2-4 3-7 3l-18 0c-3 0-5-1-7-3-1-1-2-3-2-6l0-165c0-2 1-5 2-6 2-2 4-3 7-3l18 0c3 0 5 1 7 3 1 1 2 4 2 6z m73 0l0 165c0 3 0 5-2 6-2 2-4 3-7 3l-18 0c-3 0-5-1-7-3-1-1-2-3-2-6l0-165c0-2 1-5 2-6 2-2 4-3 7-3l18 0c3 0 5 1 7 3 2 1 2 4 2 6z m37 207l0-271-256 0 0 271c0 4 1 8 2 12 1 3 3 6 4 7 2 2 3 3 3 3l238 0c0 0 1-1 3-3 1-1 3-4 4-7 1-4 2-8 2-12z m-192-307l128 0-14-34c-1-1-3-2-5-3l-90 0c-2 1-4 2-5 3z m265 9l0 18c0 3-1 5-2 7-2 1-4 2-7 2l-27 0 0 271c0 16-5 30-14 41-9 12-20 17-32 17l-238 0c-12 0-23-5-32-16-9-11-14-25-14-41l0-272-27 0c-3 0-5-1-7-2-1-2-2-4-2-7l0-18c0-3 1-5 2-7 2-1 4-2 7-2l88 0 20-48c3-7 8-13 16-18 7-5 15-7 22-7l92 0c7 0 15 2 22 7 8 5 13 11 16 18l20 48 88 0c3 0 5 1 7 2 1 2 2 4 2 7z"/>
    </symbol>
  
    <symbol id="icon-x" viewBox="0 0 512 512">
      <path d="m364 169l-86 87 86 87-21 21-87-86-87 86-21-21 86-87-86-87 21-21 87 86 87-86z"/>
    </symbol>
  
</svg>
